PathFileType        4      (X/Y/Z)      /Users/FranklinZhao/OpenSimProject/Simulation/Models/Rajapogal_2015/scale_data/transformed_SN001_static.trc         
DataRate	CameraRate	NumFrames	NumMarkers	Units	OrigDataRate	OrigDataStartFrame	OrigNumFrames
200.0	200.0	4	72	mm	200.0	11	14
Frame#	Time	LPSIS			RPSIS			LICR			RICR			LASIS			RASIS			RUA1			RUA2			RUA3			RUA4			RHLE			RHME			RTEMP			RHEAD			LHEAD			LTEMP			RACR			LACR			LUA1			LUA2			LUA3			LUA4			LHLE			LHME			STER			XPRO			C7			T4			T8			T10			LFA1			LFA2			LFA3			LRSP			LUSP			RFA1			RFA2			RFA3			RRSP			RUSP			LTH1			LTH2			LTH3			LTH4			LFLE			LFME			LSK1			LSK2			LSK3			LSK4			LTAM			LFAL			LFCC			LFMT1			LFMT2			LFMT5			RTH1			RTH2			RTH3			RTH4			RFLE			RFME			RSK1			RSK2			RSK3			RSK4			RFAL			RTAM			RFCC			RFMT1			RFMT2			RFMT5			
		X1	Y1	Z1	X2	Y2	Z2	X3	Y3	Z3	X4	Y4	Z4	X5	Y5	Z5	X6	Y6	Z6	X7	Y7	Z7	X8	Y8	Z8	X9	Y9	Z9	X10	Y10	Z10	X11	Y11	Z11	X12	Y12	Z12	X13	Y13	Z13	X14	Y14	Z14	X15	Y15	Z15	X16	Y16	Z16	X17	Y17	Z17	X18	Y18	Z18	X19	Y19	Z19	X20	Y20	Z20	X21	Y21	Z21	X22	Y22	Z22	X23	Y23	Z23	X24	Y24	Z24	X25	Y25	Z25	X26	Y26	Z26	X27	Y27	Z27	X28	Y28	Z28	X29	Y29	Z29	X30	Y30	Z30	X31	Y31	Z31	X32	Y32	Z32	X33	Y33	Z33	X34	Y34	Z34	X35	Y35	Z35	X36	Y36	Z36	X37	Y37	Z37	X38	Y38	Z38	X39	Y39	Z39	X40	Y40	Z40	X41	Y41	Z41	X42	Y42	Z42	X43	Y43	Z43	X44	Y44	Z44	X45	Y45	Z45	X46	Y46	Z46	X47	Y47	Z47	X48	Y48	Z48	X49	Y49	Z49	X50	Y50	Z50	X51	Y51	Z51	X52	Y52	Z52	X53	Y53	Z53	X54	Y54	Z54	X55	Y55	Z55	X56	Y56	Z56	X57	Y57	Z57	X58	Y58	Z58	X59	Y59	Z59	X60	Y60	Z60	X61	Y61	Z61	X62	Y62	Z62	X63	Y63	Z63	X64	Y64	Z64	X65	Y65	Z65	X66	Y66	Z66	X67	Y67	Z67	X68	Y68	Z68	X69	Y69	Z69	X70	Y70	Z70	X71	Y71	Z71	X72	Y72	Z72	
11	0.05	-1604.833740234375	1006.639282226562	276.66790771484347	-1604.443481445312	1009.6231079101561	354.06222534179653	-1585.553344726562	1066.212036132812	183.8714599609371	-1573.123657226562	1091.4462890625	445.3411254882808	-1413.500732421875	989.185791015625	185.31938171386685	-1407.082397460938	994.4700317382814	444.4139709472653	-1560.16357421875	1369.836303710938	562.2522583007808	-1498.9658203125	1400.774780273438	592.7993164062495	-1480.737426757812	1346.3186035156252	639.9887695312495	-1539.021240234375	1306.298950195312	616.5900878906245	-1500.545654296875	1244.2645263671882	665.3353881835933	-1449.552856445312	1218.55224609375	614.0336303710933	-1410.59814453125	1708.140380859375	391.0510253906245	-1368.1416015625	1714.871948242188	353.9668579101557	-1369.58447265625	1712.37939453125	272.023559570312	-1419.885498046875	1701.151245117188	233.87594604492142	-1533.065307617188	1522.951904296875	480.81768798828074	-1548.32177734375	1526.17138671875	128.5459136962886	-1517.55712890625	1408.61474609375	30.127193450927287	-1566.687744140625	1355.04248046875	52.75387191772417	-1540.021240234375	1290.884643554688	0.7308915257449661	-1491.373046875	1343.047485351562	-21.340188980102965	-1494.634765625	1249.316528320312	-42.127246856689865	-1458.102172851562	1217.448852539062	11.216138839721276	-1448.473754882812	1455.037841796875	302.0877380371089	-1391.374145507812	1250.178344726562	294.9328002929684	-1577.1904296875	1559.868896484375	312.93121337890574	-1636.054077148438	1450.210083007812	307.53878784179636	-1635.990478515625	1314.806640625	311.11798095703074	-1630.511352539062	1269.805786132812	306.25018310546835	-1446.940673828125	1140.749633789062	-224.41062927246128	-1472.599243164062	1108.461303710938	-201.74313354492227	-1437.028442382812	1107.99853515625	-229.54199218750037	-1389.627807617188	1101.437377929688	-248.48104858398477	-1412.98291015625	1048.084716796875	-210.73658752441446	-1506.481079101562	1120.5168457031252	809.2072143554683	-1487.03271484375	1152.1611328125002	837.4540405273433	-1480.550537109375	1118.9818115234382	846.242797851562	-1449.375244140625	1099.7121582031252	890.0617065429683	-1456.7666015625	1056.2797851562502	844.5663452148433	-1489.703002929688	715.9757080078125	123.14971160888639	-1538.796752929688	719.7114868164062	134.73117065429656	-1553.047485351562	612.7456665039062	143.0746459960935	-1490.6171875	613.2108154296875	126.3727035522458	-1534.416870117188	520.2705688476562	142.8008422851559	-1519.438354492188	492.1202697753907	259.1233520507809	-1568.7392578125	350.8450927734375	100.23448944091773	-1626.99658203125	352.7371826171875	122.53648376464812	-1631.078735351562	264.9149780273438	127.73064422607396	-1571.957763671875	267.3681335449219	102.67079925537085	-1551.130249023438	85.33684539794926	193.79037475585918	-1608.007080078125	76.60583496093753	133.2793884277342	-1627.184692382812	36.61212921142582	188.4047546386717	-1421.686157226562	30.223295211792014	131.63539123535142	-1433.3486328125	31.193754196167006	93.65442657470686	-1491.863403320312	23.53110122680665	58.711505889892386	-1514.012573242188	748.5191040039064	499.61196899414034	-1457.88330078125	727.6183471679689	497.7735595703122	-1460.541015625	640.9869995117189	489.6213073730466	-1524.765625	648.2550659179689	489.4929199218747	-1525.0791015625	536.3192138671876	480.58706665039034	-1519.928344726562	500.65731811523443	361.9105224609372	-1590.939086914062	366.3272094726563	512.1586914062497	-1534.448486328125	383.5004882812501	518.5955200195309	-1533.418579101562	274.2867126464845	513.7108764648435	-1597.494750976562	283.5915527343751	511.46661376953097	-1594.134155273438	74.06358337402352	487.94949340820295	-1550.2890625	87.46040344238288	414.9395446777342	-1623.528930664062	42.7748222351075	439.90014648437483	-1422.913940429688	30.062871932983484	454.94323730468733	-1421.857177734375	30.887983322143644	499.86294555664045	-1468.182861328125	21.219327926635838	547.256652832031	
12	0.055	-1604.866455078125	1006.6884765625	276.67285156249966	-1604.402954101562	1009.6339111328122	354.09887695312466	-1585.571533203125	1066.27734375	183.8820190429684	-1573.107421875	1091.477783203125	445.3877563476558	-1413.469848632812	989.1804809570312	185.37696838378875	-1407.111938476562	994.4512329101564	444.38671874999966	-1560.205932617188	1369.924926757812	562.271606445312	-1498.962646484375	1400.755737304688	592.8054809570308	-1480.76806640625	1346.3542480468752	640.0112915039058	-1539.060791015625	1306.37353515625	616.6242675781245	-1500.593505859375	1244.2476806640623	665.3498535156245	-1449.64599609375	1218.511840820312	614.0222778320308	-1410.633666992188	1708.111206054688	391.1166992187495	-1368.198364257812	1714.84814453125	353.9433593749995	-1369.618041992188	1712.351928710938	272.072875976562	-1419.858032226562	1701.123901367188	233.92585754394483	-1533.114501953125	1522.988891601562	480.84057617187455	-1548.319213867188	1526.19921875	128.57324218749952	-1517.664428710938	1408.56640625	30.098417282104045	-1566.700561523438	1355.128295898438	52.75259017944292	-1540.0498046875	1291.00634765625	0.7113888263698135	-1491.412841796875	1343.087158203125	-21.306417465210387	-1494.646240234375	1249.398315429688	-42.172840118408615	-1458.141723632812	1217.4658203125	11.204754829406337	-1448.482177734375	1455.032470703125	302.11245727539017	-1391.345581054688	1250.159790039062	294.952484130859	-1577.213134765625	1559.876831054688	312.97924804687455	-1636.0244140625	1450.283081054688	307.5309143066401	-1635.966674804688	1314.897094726562	311.0953063964839	-1630.515869140625	1269.830444335938	306.27322387695267	-1446.784057617188	1140.880981445312	-224.48495483398477	-1472.507080078125	1108.620361328125	-201.89289855957068	-1436.927978515625	1108.111694335938	-229.63693237304727	-1389.512451171875	1101.54736328125	-248.51455688476597	-1412.937866210938	1048.257690429688	-210.83872985839878	-1506.48046875	1120.6079101562502	809.2636718749995	-1486.987915039062	1152.1795654296882	837.4954223632808	-1480.587158203125	1119.0780029296882	846.2939453124995	-1449.327758789062	1099.7512207031252	890.1015624999995	-1456.81884765625	1056.3811035156252	844.614624023437	-1489.704223632812	715.9871215820312	123.1559829711911	-1538.789184570312	719.7108764648438	134.77815246581997	-1553.019409179688	612.7808227539062	143.3480072021481	-1490.576293945312	613.3060302734375	126.3186492919919	-1534.393188476562	520.3004150390625	142.8011779785153	-1519.379760742188	492.15121459960943	259.14785766601534	-1568.728271484375	350.8516540527344	100.19213104248023	-1626.9921875	352.7448120117188	122.56854248046854	-1631.0634765625	264.9462280273438	127.69905090332006	-1571.924926757812	267.4039306640625	102.66005706787085	-1551.134033203125	85.34558105468754	193.81938171386696	-1608.051391601562	76.66510009765628	133.3001861572264	-1627.170654296875	36.64337539672856	188.4134674072264	-1421.695922851562	30.261327743530295	131.68717956542952	-1433.361572265625	31.200773239135756	93.6753845214842	-1491.858520507812	23.55828475952149	58.68219375610333	-1514.02783203125	748.5473632812501	499.65225219726534	-1457.86474609375	727.6450195312501	497.7573852539059	-1460.546875	640.9757080078126	489.6289062499997	-1524.7666015625	648.2959594726564	489.4897460937497	-1525.032592773438	536.3873291015626	480.6027221679685	-1519.999267578125	500.77243041992193	362.00601196289034	-1590.951904296875	366.4237670898439	512.2153930664059	-1534.462890625	383.5407714843751	518.6054077148434	-1533.447265625	274.293914794922	513.7587890624998	-1597.466186523438	283.5993041992189	511.5189208984373	-1594.1201171875	74.10983276367196	487.9822692871092	-1550.249145507812	87.5179519653321	414.86254882812483	-1623.524780273438	42.79342269897469	439.8791198730467	-1422.906616210938	30.060430526733484	454.943176269531	-1421.866943359375	30.882930755615323	499.88128662109364	-1468.180053710938	21.25323486328135	547.2304077148435	
13	0.06	-1604.8212890625	1006.730895996094	276.66390991210903	-1604.452270507812	1009.6676025390622	354.06329345703085	-1585.570678710938	1066.299438476562	183.8595123291012	-1573.1767578125	1091.501342773438	445.3592834472652	-1413.494995117188	989.2281494140625	185.44824218749966	-1407.124877929688	994.4724121093751	444.36938476562466	-1560.237060546875	1369.97314453125	562.2830200195308	-1498.965087890625	1400.755004882812	592.8473510742183	-1480.780639648438	1346.3548583984382	640.004028320312	-1539.068969726562	1306.371826171875	616.627319335937	-1500.630126953125	1244.2916259765623	665.3743286132808	-1449.686767578125	1218.518188476562	614.0350952148433	-1410.651000976562	1708.160400390625	391.1477050781245	-1368.134765625	1714.883544921875	353.9961242675776	-1369.638549804688	1712.399291992188	272.1332092285151	-1419.88427734375	1701.1806640625	233.9305877685542	-1533.12939453125	1522.989501953125	480.84619140624955	-1548.361450195312	1526.226196289062	128.59263610839793	-1517.675048828125	1408.591064453125	30.081861495971236	-1566.685668945312	1355.182006835938	52.68988037109331	-1540.072143554688	1291.02685546875	0.6816067695613418	-1491.398559570312	1343.1083984375	-21.339879989624446	-1494.662231445312	1249.440307617188	-42.17944335937541	-1458.154663085938	1217.493286132812	11.174338340758876	-1448.55126953125	1455.024047851562	302.17187499999955	-1391.364013671875	1250.113891601562	294.9545288085934	-1577.21484375	1559.901977539062	312.97277832031205	-1636.060913085938	1450.301147460938	307.55941772460886	-1636.002197265625	1314.9443359375	311.08145141601517	-1630.517456054688	1269.85595703125	306.26422119140574	-1446.679321289062	1141.019775390625	-224.55149841308628	-1472.432250976562	1108.756103515625	-202.01249694824256	-1436.807006835938	1108.263305664062	-229.67427062988318	-1389.348388671875	1101.672607421875	-248.50596618652378	-1412.84912109375	1048.333251953125	-210.89883422851597	-1506.491943359375	1120.5985107421882	809.3307495117183	-1486.992797851562	1152.2557373046882	837.5343627929683	-1480.547973632812	1119.0921630859382	846.2973022460933	-1449.307861328125	1099.8140869140623	890.1245117187495	-1456.769287109375	1056.4312744140623	844.6475219726558	-1489.677856445312	715.9729614257812	123.13419342040989	-1538.792724609375	719.7161865234375	134.80271911621057	-1553.011474609375	612.8175659179688	143.3488464355466	-1490.5732421875	613.2862548828125	126.3553619384763	-1534.398559570312	520.3102416992188	142.7865447998044	-1519.346557617188	492.1821594238282	259.1619873046872	-1568.746215820312	350.8302612304688	100.24091339111303	-1626.958374023438	352.7640380859375	122.51283264160134	-1631.0517578125	264.9490051269531	127.68405151367166	-1571.926147460938	267.4028930664062	102.67522430419896	-1551.102783203125	85.37815093994145	193.76649475097636	-1607.858154296875	76.74416351318362	133.341125488281	-1627.158203125	36.635944366455114	188.411422729492	-1421.705932617188	30.263023376464865	131.68013000488264	-1433.369384765625	31.178310394287127	93.65090942382795	-1491.83203125	23.55290603637696	58.69275283813458	-1514.057861328125	748.5410766601564	499.62429809570284	-1457.902221679688	727.6334228515626	497.78396606445284	-1460.531494140625	641.0147705078126	489.6267089843747	-1524.78857421875	648.2909545898439	489.5040283203122	-1525.052978515625	536.3810424804689	480.57730102539034	-1519.953979492188	500.84909057617193	362.0248413085935	-1590.92529296875	366.4053344726563	512.1976318359372	-1534.45263671875	383.57583618164074	518.6140136718747	-1533.4404296875	274.292694091797	513.721496582031	-1597.4765625	283.6049194335939	511.4936523437498	-1594.113647460938	74.13615417480477	487.93228149414045	-1550.266845703125	87.56951904296882	414.96228027343733	-1623.5	42.83835601806649	439.858703613281	-1422.9111328125	30.043949127197354	454.8904724121092	-1421.869018554688	30.927021026611424	499.88104248046864	-1468.168579101562	21.26803207397471	547.2441406249998	
14	0.065	-1604.885009765625	1006.74169921875	276.64425659179653	-1604.43896484375	1009.6984863281251	354.04479980468716	-1585.575317382812	1066.282104492188	183.8579559326168	-1573.156372070312	1091.4951171875	445.3464050292965	-1413.503784179688	989.248779296875	185.42326354980435	-1407.16455078125	994.4861450195314	444.41879272460903	-1560.230590820312	1369.933959960938	562.3356933593745	-1498.978515625	1400.780639648438	592.885131835937	-1480.792114257812	1346.3596191406252	640.0341796874995	-1539.11474609375	1306.38916015625	616.6533813476558	-1500.64208984375	1244.2879638671882	665.3952636718745	-1449.767944335938	1218.52392578125	614.0463867187495	-1410.684204101562	1708.16748046875	391.18942260742136	-1368.180053710938	1714.845092773438	354.0281066894526	-1369.612182617188	1712.469970703125	272.118774414062	-1419.867431640625	1701.199829101562	233.94174194335892	-1533.165893554688	1522.978637695312	480.8481140136714	-1548.348388671875	1526.210571289062	128.57440185546832	-1517.694458007812	1408.638549804688	30.115598678588427	-1566.709228515625	1355.190185546875	52.67601394653276	-1540.07373046875	1291.106567382812	0.6566968560214553	-1491.414916992188	1343.156127929688	-21.367113113403747	-1494.673706054688	1249.492919921875	-42.231765747070725	-1458.194091796875	1217.521728515625	11.141088485717367	-1448.591186523438	1455.085083007812	302.14074707031205	-1391.376098632812	1250.166748046875	294.9624328613277	-1577.253784179688	1559.88330078125	312.97085571289017	-1636.094116210938	1450.411010742188	307.4627990722651	-1636.0537109375	1314.964111328125	311.09631347656205	-1630.558471679688	1269.900146484375	306.27215576171835	-1446.544311523438	1141.1318359375	-224.60563659668006	-1472.331176757812	1108.877807617188	-202.13752746582068	-1436.671997070312	1108.428466796875	-229.81762695312537	-1389.213989257812	1101.777709960938	-248.53013610839878	-1412.728149414062	1048.401245117188	-211.03686523437537	-1506.499389648438	1120.6221923828123	809.3961791992183	-1487.01220703125	1152.2950439453123	837.5471801757808	-1480.581176757812	1119.1419677734382	846.3737182617183	-1449.264404296875	1099.8355712890623	890.1916503906245	-1456.789672851562	1056.4355468750002	844.6923828124995	-1489.682739257812	715.9934692382812	123.11724853515588	-1538.80078125	719.718017578125	134.77742004394497	-1553.029052734375	612.7799682617188	143.06484985351528	-1490.596069335938	613.2528686523438	126.4320297241208	-1534.4169921875	520.3170776367188	142.79524230957003	-1519.32861328125	492.16528320312506	259.1729736328122	-1568.69677734375	350.8957824707031	100.23595428466773	-1626.9609375	352.76025390625	122.53877258300753	-1631.054809570312	264.9517517089844	127.69112396240206	-1571.936157226562	267.3966674804688	102.68649291992166	-1551.093627929688	85.32217407226567	193.73377990722636	-1608.026000976562	76.68078613281253	133.2835845947264	-1627.149169921875	36.673950195312536	188.3888244628904	-1421.683837890625	30.280876159667994	131.62586975097642	-1433.353881835938	31.197088241577166	93.66670227050764	-1491.857177734375	23.53028869628907	58.667587280273246	-1514.064453125	748.5280761718751	499.59988403320284	-1457.90380859375	727.6181640625001	497.7553405761716	-1460.549194335938	641.0057373046876	489.6669311523435	-1524.811401367188	648.2817993164064	489.43118286132784	-1525.024780273438	536.4088134765626	480.6076660156247	-1519.949584960938	500.7585754394532	361.9418640136716	-1590.927734375	366.398406982422	512.1955566406247	-1534.451416015625	383.58694458007824	518.6229248046872	-1533.448608398438	274.3231201171876	513.7399291992185	-1597.493041992188	283.5552978515626	511.4866027832029	-1594.131103515625	74.15183258056649	487.9195251464842	-1550.250366210938	87.51666259765632	414.869934082031	-1623.4814453125	42.805866241455156	439.86517333984364	-1422.903930664062	30.048082351684656	454.91946411132795	-1421.8642578125	30.91475105285654	499.86209106445295	-1468.158447265625	21.21745300292979	547.1748046874998	
